Coordinates
version=1
nRows=11
nColumns=40
inDegrees=yes

Units are S.I. units (second, meters, Newtons, ...)
If the header above contains a line with 'inDegrees', this indicates whether rotational values are in degrees (yes) or radians (no).

endheader
time	pelvis_tilt	pelvis_list	pelvis_rotation	pelvis_tx	pelvis_ty	pelvis_tz	hip_flexion_r	hip_adduction_r	hip_rotation_r	knee_angle_r	knee_angle_r_beta	ankle_angle_r	subtalar_angle_r	mtp_angle_r	hip_flexion_l	hip_adduction_l	hip_rotation_l	knee_angle_l	knee_angle_l_beta	ankle_angle_l	subtalar_angle_l	mtp_angle_l	lumbar_extension	lumbar_bending	lumbar_rotation	arm_flex_r	arm_add_r	arm_rot_r	elbow_flex_r	pro_sup_r	wrist_flex_r	wrist_dev_r	arm_flex_l	arm_add_l	arm_rot_l	elbow_flex_l	pro_sup_l	wrist_flex_l	wrist_dev_l
      0.66500000	    -16.80815309	      0.59857402	     -3.80912175	      0.16640804	      0.73222679	     -1.18881404	     59.19851012	    -35.28903788	    -11.56560249	     68.67331849	      1.19857552	     15.90721310	      2.50111602	      0.00000000	     56.06804184	    -42.41292220	    -19.79842406	     69.45363347	      1.21219458	     16.72411137	     13.29221486	      0.00000000	    -10.22243074	     -0.52607498	      2.70434749	     44.68105897	    -15.08223933	     44.68105897	     75.00873070	     44.99991580	      0.00000000	      0.00000000	     44.68105897	    -15.08223933	     44.68105897	     75.00873070	     44.99991580	      0.00000000	      0.00000000
      0.67000000	    -17.18034642	      0.68384376	     -3.80264495	      0.16573093	      0.72817864	     -1.18875815	     60.30063015	    -35.46343128	    -11.03015267	     69.50253356	      1.21304805	     16.32310614	      2.84045834	      0.00000000	     57.08078067	    -42.60465125	    -19.37952005	     70.24032885	      1.22592501	     17.05772357	     13.64731002	      0.00000000	     -9.80096997	     -0.61423809	      2.73601289	     44.68294477	    -15.08146763	     44.68294477	     75.00858685	     44.99991889	      0.00000000	      0.00000000	     44.68294477	    -15.08146763	     44.68294477	     75.00858685	     44.99991889	      0.00000000	      0.00000000
      0.67500000	    -16.94547822	      0.68201566	     -3.81829756	      0.16541915	      0.72609592	     -1.18877187	     60.47239281	    -35.61010271	    -10.83339858	     70.03141299	      1.22227874	     16.36992929	      2.65997871	      0.00000000	     57.23024634	    -42.81799852	    -19.20222856	     70.79594258	      1.23562230	     17.12986053	     13.46255879	      0.00000000	    -10.20823948	     -0.64584150	      2.70225947	     44.68430240	    -15.08092346	     44.68430240	     75.00849026	     44.99992066	      0.00000000	      0.00000000	     44.68430240	    -15.08092346	     44.68430240	     75.00849026	     44.99992066	      0.00000000	      0.00000000
      0.68000000	    -17.18501825	      0.74601534	     -3.84348098	      0.16489184	      0.72246670	     -1.18866995	     61.36470721	    -35.74895513	    -10.36246828	     70.78488597	      1.23542932	     16.83480696	      2.99614140	      0.00000000	     58.02217499	    -43.03148616	    -18.81444877	     71.50669452	      1.24802726	     17.54940658	     14.00230384	      0.00000000	     -9.96372756	     -0.71340814	      2.75438101	     44.68583765	    -15.08030045	     44.68583765	     75.00837624	     44.99992299	      0.00000000	      0.00000000	     44.68583765	    -15.08030045	     44.68583765	     75.00837624	     44.99992299	      0.00000000	      0.00000000
      0.68500000	    -17.32585197	      0.79399053	     -3.86782621	      0.16433185	      0.71922238	     -1.18859910	     62.11250712	    -35.86250153	     -9.94526156	     71.46944220	      1.24737708	     17.05109269	      2.98838608	      0.00000000	     58.69762140	    -43.22912363	    -18.47522326	     72.16970152	      1.25959891	     17.74018816	     14.03155347	      0.00000000	     -9.87053748	     -0.77094877	      2.78687660	     44.68758525	    -15.07958999	     44.68758525	     75.00824558	     44.99992571	      0.00000000	      0.00000000	     44.68758525	    -15.07958999	     44.68758525	     75.00824558	     44.99992571	      0.00000000	      0.00000000
      0.69000000	    -17.35760389	      0.81895801	     -3.89489739	      0.16391271	      0.71629462	     -1.18855922	     62.67655912	    -35.97678472	     -9.59205716	     72.10186715	      1.25841498	     17.29117734	      3.04861051	      0.00000000	     59.20764248	    -43.44693051	    -18.17972233	     72.79019152	      1.27042851	     17.97472250	     14.18724679	      0.00000000	     -9.92263629	     -0.79887343	      2.79585955	     44.68911789	    -15.07896956	     44.68911789	     75.00813255	     44.99992801	      0.00000000	      0.00000000	     44.68911789	    -15.07896956	     44.68911789	     75.00813255	     44.99992801	      0.00000000	      0.00000000
      0.69500000	    -17.12977176	      0.81213469	     -3.90899769	      0.16363736	      0.71429979	     -1.18861682	     62.81758035	    -36.10834688	     -9.41049659	     72.55808413	      1.26637747	     17.31709753	      2.88784236	      0.00000000	     59.34161795	    -43.64418014	    -18.01292016	     73.29299370	      1.27920406	     18.02662356	     13.99820868	      0.00000000	    -10.33265049	     -0.81847711	      2.75841671	     44.69022400	    -15.07853031	     44.69022400	     75.00805607	     44.99992934	      0.00000000	      0.00000000	     44.69022400	    -15.07853031	     44.69022400	     75.00805607	     44.99992934	      0.00000000	      0.00000000
      0.70000000	    -17.43624143	      0.86981319	     -3.95432295	      0.16301836	      0.71045079	     -1.18848394	     63.82013892	    -36.18295318	     -8.87378728	     73.33037945	      1.27985656	     17.74441941	      3.18239892	      0.00000000	     60.26142472	    -43.86307267	    -17.55719848	     74.02081335	      1.29190691	     18.38947694	     14.43252996	      0.00000000	    -10.01130595	     -0.87242200	      2.84208669	     44.69173915	    -15.07791772	     44.69173915	     75.00794470	     44.99993160	      0.00000000	      0.00000000	     44.69173915	    -15.07791772	     44.69173915	     75.00794470	     44.99993160	      0.00000000	      0.00000000
      0.70500000	    -17.21681624	      0.86281343	     -3.97712059	      0.16275682	      0.70831423	     -1.18853427	     64.00618878	    -36.31432773	     -8.67004584	     73.84741416	      1.28888052	     17.84810257	      3.03941782	      0.00000000	     60.42273492	    -44.07060403	    -17.36444656	     74.55657065	      1.30125764	     18.52504667	     14.32716327	      0.00000000	    -10.40647698	     -0.87037855	      2.80646246	     44.69276325	    -15.07751220	     44.69276325	     75.00787449	     44.99993281	      0.00000000	      0.00000000	     44.69276325	    -15.07751220	     44.69276325	     75.00787449	     44.99993281	      0.00000000	      0.00000000
      0.71000000	    -17.53205560	      0.91188825	     -4.01302509	      0.16217097	      0.70460445	     -1.18843059	     64.96349024	    -36.37329327	     -8.17010319	     74.54104719	      1.30098670	     18.21429178	      3.30575803	      0.00000000	     61.32995318	    -44.26299427	    -16.90045696	     75.21790626	      1.31280012	     18.85056546	     14.71373750	      0.00000000	    -10.09020939	     -0.91078437	      2.87426022	     44.69421434	    -15.07692812	     44.69421434	     75.00776930	     44.99993489	      0.00000000	      0.00000000	     44.69421434	    -15.07692812	     44.69421434	     75.00776930	     44.99993489	      0.00000000	      0.00000000
      0.71500000	    -17.36194795	      0.90535727	     -4.03045653	      0.16188712	      0.70240060	     -1.18847571	     65.19962386	    -36.48752958	     -7.93685951	     75.04771574	      1.30982974	     18.33259834	      3.19760371	      0.00000000	     61.55662361	    -44.45127174	    -16.66583670	     75.73295079	      1.32178934	     18.99688040	     14.64247170	      0.00000000	    -10.42692221	     -0.91478492	      2.85276831	     44.69528855	    -15.07650353	     44.69528855	     75.00769602	     44.99993615	      0.00000000	      0.00000000	     44.69528855	    -15.07650353	     44.69528855	     75.00769602	     44.99993615	      0.00000000	      0.00000000
